<?xml version="1.0" standalone="no"?>
<!DOCTYPE svg PUBLIC "-//W3C//DTD SVG 20010904//EN"
 "http://www.w3.org/TR/2001/REC-SVG-20010904/DTD/svg10.dtd">
<svg version="1.0" xmlns="http://www.w3.org/2000/svg"
 width="651.000000pt" height="835.000000pt" viewBox="0 0 651.000000 835.000000"
 preserveAspectRatio="xMidYMid meet">
<metadata>
Created by potrace 1.16, written by Peter Selinger 2001-2019
</metadata>
<g transform="translate(0.000000,835.000000) scale(0.100000,-0.100000)"
fill="#000000" stroke="none">
<path d="M5052 8334 c-87 -23 -160 -65 -232 -131 -256 -237 -441 -604 -576
-1138 -20 -82 -38 -151 -40 -153 -1 -2 -28 10 -60 26 -101 51 -249 101 -346
118 -343 60 -745 -101 -974 -389 -82 -104 -166 -272 -201 -402 -24 -90 -27
-117 -27 -280 -1 -194 11 -265 68 -404 93 -230 264 -394 462 -445 70 -18 207
-21 274 -5 240 55 410 304 371 543 -32 194 -152 314 -324 324 -61 4 -68 6 -73
28 -15 60 29 164 97 232 113 112 270 130 464 53 133 -52 128 -19 55 -323 -113
-477 -165 -649 -655 -2193 -145 -457 -344 -1045 -354 -1045 -3 0 -53 210 -109
468 -155 699 -271 1209 -383 1677 -156 653 -384 1696 -450 2060 -86 473 -115
592 -230 945 -58 178 -80 220 -144 279 -76 70 -121 85 -255 86 -109 0 -119 -2
-182 -32 -127 -60 -197 -159 -205 -292 -4 -70 0 -92 56 -289 95 -331 123 -412
273 -787 261 -651 507 -1435 732 -2334 256 -1023 422 -1792 551 -2560 14 -85
31 -163 37 -175 33 -65 120 -116 198 -116 107 0 303 118 350 209 9 20 68 196
130 391 258 819 327 1026 615 1855 315 904 368 1053 455 1270 71 178 161 388
169 398 4 4 41 -18 82 -49 100 -77 241 -170 312 -205 31 -16 57 -31 57 -33 0
-2 -48 -122 -106 -267 -200 -499 -307 -851 -444 -1469 -114 -514 -234 -953
-340 -1249 -223 -623 -520 -1120 -855 -1432 -215 -201 -515 -380 -780 -468
-168 -56 -250 -71 -405 -78 -219 -9 -346 23 -555 139 -159 88 -276 170 -361
250 -70 67 -145 167 -172 231 l-12 29 43 -36 c127 -104 321 -150 472 -111 179
47 308 179 351 361 25 109 15 274 -23 387 -70 202 -216 365 -423 471 -214 110
-477 145 -690 90 -83 -21 -210 -80 -291 -135 -186 -126 -349 -367 -416 -616
-24 -89 -27 -115 -27 -278 0 -157 3 -191 22 -264 69 -252 189 -450 394 -646
217 -209 484 -349 763 -401 119 -22 439 -30 603 -15 471 43 735 103 986 225
209 102 330 191 550 406 506 495 739 806 952 1270 220 482 356 935 584 1945
92 411 183 783 235 965 39 137 141 450 178 545 l23 60 125 -3 c184 -5 358 38
474 118 97 66 147 194 128 320 -28 178 -141 301 -293 318 l-60 7 48 80 c177
294 448 663 676 919 47 53 93 110 101 126 60 115 -71 252 -189 198 -39 -17
-275 -305 -456 -554 -132 -181 -281 -410 -395 -606 -70 -122 -103 -168 -116
-168 -33 0 -182 59 -253 101 -64 37 -226 148 -226 155 0 1 39 93 86 205 205
484 309 643 591 901 136 125 161 352 62 554 -39 78 -132 170 -211 207 -101 47
-231 60 -336 31z"/>
</g>
</svg>
