<?xml version="1.0" encoding="UTF-8"?>
<svg xmlns="http://www.w3.org/2000/svg" xmlns:xlink="http://www.w3.org/1999/xlink" width="120px" height="120px" viewBox="0 0 120 120" version="1.1">
<g id="surface1">
<path style=" stroke:none;fill-rule:nonzero;fill:rgb(0%,0%,0%);fill-opacity:1;" d="M 92.875 0.34375 C 91.140625 0.734375 90.054688 1.308594 88.15625 2.789062 C 83.84375 6.179688 80.730469 11.136719 78.296875 18.460938 C 77.894531 19.726562 77.523438 20.777344 77.488281 20.804688 C 77.449219 20.832031 76.789062 20.589844 75.996094 20.289062 C 72.492188 18.90625 69.933594 18.460938 66.414062 18.578125 C 62.15625 18.707031 58.527344 19.800781 55.0625 21.96875 C 48.003906 26.378906 45.753906 34.351562 49.753906 40.734375 C 52.351562 44.871094 57.511719 47.097656 62.433594 46.191406 C 65.769531 45.574219 68.367188 43.648438 69.195312 41.164062 C 70.007812 38.707031 68.9375 35.917969 66.746094 34.742188 C 65.75 34.210938 64.015625 33.765625 62.910156 33.765625 L 62.101562 33.765625 L 62.101562 33.074219 C 62.101562 31.898438 62.597656 31.0625 63.832031 30.085938 C 65.289062 28.949219 66.449219 28.59375 68.625 28.59375 C 70.335938 28.59375 71.996094 28.921875 73.765625 29.625 C 74.574219 29.941406 74.816406 30.101562 74.742188 30.289062 C 74.6875 30.417969 74.429688 31.277344 74.171875 32.183594 C 72.640625 37.441406 71.316406 41.207031 68.605469 47.988281 C 61.898438 64.855469 55.246094 80.746094 54.914062 80.746094 C 54.859375 80.746094 53.917969 77.601562 52.8125 73.734375 C 49.828125 63.261719 47.78125 56.222656 45.699219 49.425781 C 43.894531 43.503906 39.785156 29.238281 38.679688 25 C 38.382812 23.851562 37.683594 20.976562 37.132812 18.605469 C 36.027344 13.863281 35.378906 11.824219 33.703125 7.613281 C 32.394531 4.351562 31.933594 3.550781 30.882812 2.714844 C 27.769531 0.246094 21.746094 0.875 19.625 3.90625 C 19.183594 4.539062 19.074219 4.886719 19.015625 5.90625 C 18.945312 7.070312 19 7.3125 19.992188 10 C 21.652344 14.570312 22.371094 16.148438 25.097656 21.480469 C 29.816406 30.660156 34.273438 41.738281 38.328125 54.308594 C 43.101562 69.136719 45.902344 79.210938 48.425781 90.675781 C 49.257812 94.382812 49.460938 94.742188 50.933594 95.332031 C 52.554688 95.960938 54.75 95.746094 56.242188 94.828125 C 56.609375 94.582031 56.976562 94.398438 57.050781 94.398438 C 57.4375 94.398438 58.671875 93.5625 59.058594 93.046875 C 59.300781 92.714844 60.753906 89.351562 62.285156 85.558594 C 66.597656 74.898438 70.300781 66.320312 78.226562 48.777344 C 79.792969 45.300781 84.140625 36.710938 84.507812 36.363281 C 84.546875 36.335938 85.429688 36.824219 86.5 37.441406 C 87.566406 38.074219 89.375 39.007812 90.515625 39.539062 C 91.660156 40.085938 92.691406 40.558594 92.820312 40.617188 C 92.96875 40.703125 92.449219 41.824219 91.125 44.398438 C 87.347656 51.710938 85.613281 56.136719 83.015625 65.113281 C 79.164062 78.375 76.4375 85.042969 72.125 91.808594 C 66.542969 100.53125 60 105.992188 50.96875 109.484375 C 44.058594 112.140625 37.851562 112.816406 32.523438 111.480469 C 30.753906 111.050781 27.53125 109.726562 25.023438 108.417969 C 21.835938 106.765625 19.203125 104.46875 18.519531 102.730469 C 18.390625 102.429688 18.484375 102.457031 19.273438 103.003906 C 21.082031 104.238281 23.382812 104.886719 26.039062 104.886719 C 31.695312 104.886719 35.492188 101.078125 34.679688 96.25 C 33.722656 90.648438 27.492188 86.394531 19.386719 85.777344 C 13.175781 85.316406 7.316406 87.515625 3.742188 91.667969 C -0.699219 96.839844 -1.160156 102.832031 2.488281 108.304688 C 3.832031 110.332031 5.289062 111.867188 7.390625 113.503906 C 9.601562 115.230469 12.015625 116.566406 14.835938 117.671875 C 19.183594 119.351562 22.222656 119.871094 28.101562 119.871094 C 31.953125 119.886719 33.5 119.800781 38.789062 119.238281 C 45.941406 118.492188 51.082031 116.984375 56.257812 114.125 C 57.878906 113.21875 63.628906 108.921875 67.019531 106.0625 C 72.199219 101.679688 75.515625 97.84375 78.574219 92.699219 C 82.574219 85.960938 85.226562 79.125 89.28125 65.15625 C 91.363281 58.015625 92.820312 53.390625 93.960938 50.289062 C 94.902344 47.730469 96.632812 43.664062 97.296875 42.472656 C 97.628906 41.851562 97.683594 41.808594 98.164062 41.910156 C 98.457031 41.96875 99.636719 42.011719 100.796875 41.996094 C 103.230469 41.984375 105.09375 41.652344 107.175781 40.890625 C 108.796875 40.289062 109.605469 39.742188 110.308594 38.765625 C 110.804688 38.058594 110.839844 37.902344 110.839844 36.496094 C 110.839844 35.15625 110.785156 34.886719 110.363281 34.179688 C 109.367188 32.527344 107.78125 31.566406 105.609375 31.277344 L 104.300781 31.105469 L 106.199219 28.777344 C 109.550781 24.613281 113.734375 20.246094 117.824219 16.625 C 119.6875 14.957031 119.777344 14.855469 119.777344 14.082031 C 119.777344 12.628906 118.011719 11.566406 116.425781 12.082031 C 115.355469 12.429688 109.109375 18.5625 105.148438 23.175781 C 103.25 25.386719 100.171875 29.308594 99.34375 30.574219 C 99.121094 30.917969 98.828125 31.222656 98.699219 31.265625 C 98.3125 31.378906 95.730469 30.660156 94.164062 30 C 92.339844 29.253906 89.445312 27.628906 89.519531 27.414062 C 89.632812 27.113281 91.933594 22.886719 92.894531 21.222656 C 95.179688 17.253906 97.851562 14.308594 101.019531 12.242188 C 103.324219 10.746094 104.117188 9.453125 104.117188 7.253906 C 104.117188 4.308594 102.347656 1.984375 99.195312 0.761719 C 97.832031 0.246094 97.683594 0.214844 95.75 0.1875 C 94.496094 0.171875 93.390625 0.230469 92.875 0.34375 Z M 92.875 0.34375 "/>
</g>
</svg>
